<svg width="28" height="28" viewBox="0 0 28 28" fill="none" xmlns="http://www.w3.org/2000/svg">
<path d="M24.8446 6.25273C24.7916 6.19976 20.0639 1.47257 20.1169 1.52526C20.0206 1.4295 19.8562 1.37109 19.7442 1.37109H7.34718C6.66023 1.37109 6.10149 1.92983 6.10149 2.61678V4.28759H4.24959C3.56265 4.28759 3.00391 4.84633 3.00391 5.53328V25.3727C3.00391 26.0633 3.56574 26.6251 4.2563 26.6251H20.6561C21.3431 26.6251 21.9018 26.0633 21.9018 25.3727V23.7086H23.747C24.4375 23.7086 24.9994 23.1468 24.9994 22.4562V6.62625C24.9994 6.51697 24.9435 6.35163 24.8446 6.25273ZM20.2725 5.93569V3.17475L23.2669 6.16915L20.6589 6.32521C20.4706 6.32329 20.2725 6.17037 20.2725 5.93569ZM20.8452 25.3727C20.8452 25.4826 20.7621 25.5685 20.6561 25.5685H4.2563C4.14641 25.5685 4.06051 25.4826 4.06051 25.3727V5.53328C4.06051 5.42906 4.14538 5.34419 4.24959 5.34419H6.10149V22.4562C6.10149 23.1468 6.66023 23.7086 7.34718 23.7086H20.8452V25.3727ZM23.9428 22.4562C23.9428 22.5643 23.8551 22.652 23.747 22.652H7.34718C7.24477 22.652 7.15809 22.5622 7.15809 22.4562V2.61678C7.15809 2.51257 7.24296 2.4277 7.34718 2.4277H19.2159V5.93569C19.2159 6.73356 19.8649 7.38259 20.6628 7.38259C20.6734 7.38259 20.684 7.38233 20.6943 7.38156L23.9428 7.18706V22.4562Z" fill="#878789"/>
<path d="M9.23533 5.15035H17.001C17.2927 5.15035 17.5293 4.9138 17.5293 4.62205C17.5293 4.3303 17.2927 4.09375 17.001 4.09375H9.23533C8.94358 4.09375 8.70703 4.3303 8.70703 4.62205C8.70703 4.9138 8.94358 5.15035 9.23533 5.15035Z" fill="#878789"/>
<path d="M9.23533 8.32614H17.001C17.2927 8.32614 17.5293 8.08959 17.5293 7.79783C17.5293 7.50608 17.2927 7.26953 17.001 7.26953H9.23533C8.94358 7.26953 8.70703 7.50608 8.70703 7.79783C8.70703 8.08959 8.94358 8.32614 9.23533 8.32614Z" fill="#878789"/>
<path d="M21.7098 19.9727H9.23533C8.94358 19.9727 8.70703 20.2092 8.70703 20.501C8.70703 20.7927 8.94358 21.0293 9.23533 21.0293H21.7098C22.0015 21.0293 22.2381 20.7927 22.2381 20.501C22.2381 20.2092 22.0015 19.9727 21.7098 19.9727Z" fill="#878789"/>
<path d="M15.4018 9.44531C14.3457 9.44531 13.3237 9.80381 12.4997 10.4493H9.23143C8.93967 10.4493 8.70312 10.6858 8.70312 10.9776C8.70312 11.2693 8.93967 11.5059 9.23143 11.5059H11.5036C11.0746 12.1295 10.7952 12.8507 10.701 13.6243H9.23143C8.93967 13.6243 8.70312 13.8608 8.70312 14.1526C8.70312 14.4443 8.93967 14.6809 9.23143 14.6809H10.6897C10.7703 15.4431 11.04 16.168 11.4601 16.7995H9.23143C8.93967 16.7995 8.70312 17.036 8.70312 17.3278C8.70312 17.6195 8.93967 17.8561 9.23143 17.8561H12.4195C13.2571 18.5431 14.306 18.9233 15.4018 18.9233C16.4993 18.9233 17.5495 18.5422 18.3848 17.8561H21.71C22.0017 17.8561 22.2383 17.6195 22.2383 17.3278C22.2383 17.036 22.0017 16.7995 21.71 16.7995H19.3434C19.764 16.1673 20.0337 15.4427 20.1142 14.6809H21.71C22.0017 14.6809 22.2383 14.4443 22.2383 14.1526C22.2383 13.8608 22.0017 13.6243 21.71 13.6243H20.107C20.0156 12.8573 19.7341 12.1332 19.3016 11.5059H21.71C22.0017 11.5059 22.2383 11.2693 22.2383 10.9776C22.2383 10.6858 22.0017 10.4493 21.71 10.4493H18.3039C17.4777 9.80297 16.4569 9.44531 15.4018 9.44531ZM11.7197 14.157C11.7368 12.1195 13.4061 10.5019 15.4018 10.5019C17.3958 10.5019 19.0671 12.1171 19.0842 14.157H19.0851C19.0852 14.1665 19.0899 14.1745 19.0905 14.1839L19.0842 14.1843C19.0842 16.1794 17.4614 17.8667 15.4018 17.8667C13.4159 17.8667 11.7197 16.2619 11.7197 14.157Z" fill="#878789"/>
<path d="M16.5867 12.9173L15.1045 14.8089L14.4714 14.2037C14.2609 14.0018 13.9264 14.0095 13.7247 14.2205C13.5229 14.4313 13.5304 14.7656 13.7414 14.9673L14.5687 15.7587C14.9153 16.0894 15.4739 16.051 15.7703 15.6723L17.4184 13.5689C17.5984 13.3393 17.5579 13.0073 17.3284 12.8273C17.0988 12.6477 16.7673 12.6872 16.5867 12.9173Z" fill="#878789"/>
</svg>
