<svg width="34" height="23" viewBox="0 0 34 23" fill="none" xmlns="http://www.w3.org/2000/svg">
<path d="M2.65625 22.4688H0.53125C0.237469 22.4688 0 22.1957 0 21.8594V2.35938C0 1.35147 0.715062 0.53125 1.59375 0.53125C2.47244 0.53125 3.1875 1.35147 3.1875 2.35938V21.8594C3.1875 22.1957 2.95003 22.4688 2.65625 22.4688ZM1.0625 21.25H2.125V2.35938C2.125 2.02361 1.887 1.75 1.59375 1.75C1.3005 1.75 1.0625 2.02361 1.0625 2.35938V21.25Z" fill="#878789"/>
<path d="M33.4688 22.4688H31.3438C31.05 22.4688 30.8125 22.1957 30.8125 21.8594V8.45312C30.8125 7.44522 31.5276 6.625 32.4062 6.625C33.2849 6.625 34 7.44522 34 8.45312V21.8594C34 22.1957 33.7625 22.4688 33.4688 22.4688ZM31.875 21.25H32.9375V8.45312C32.9375 8.11736 32.6995 7.84375 32.4062 7.84375C32.113 7.84375 31.875 8.11736 31.875 8.45312V21.25Z" fill="#878789"/>
<path d="M31.3438 19.4219H2.65625C2.36247 19.4219 2.125 19.1489 2.125 18.8125V12.7188C2.125 12.3824 2.36247 12.1094 2.65625 12.1094H10.0938C10.3875 12.1094 10.625 12.3824 10.625 12.7188C10.625 13.0551 10.3875 13.3281 10.0938 13.3281H3.1875V18.2031H30.8125V12.7188C30.8125 12.3824 31.05 12.1094 31.3438 12.1094C31.6375 12.1094 31.875 12.3824 31.875 12.7188V18.8125C31.875 19.1489 31.6375 19.4219 31.3438 19.4219Z" fill="#878789"/>
<path d="M31.3438 16.9844H10.0938C9.79997 16.9844 9.5625 16.7114 9.5625 16.375V11.5C9.5625 9.81995 10.7541 8.45312 12.2188 8.45312H29.2188C30.6834 8.45312 31.875 9.81995 31.875 11.5V16.375C31.875 16.7114 31.6375 16.9844 31.3438 16.9844ZM10.625 15.7656H30.8125V11.5C30.8125 10.4921 30.0974 9.67188 29.2188 9.67188H12.2188C11.3401 9.67188 10.625 10.4921 10.625 11.5V15.7656Z" fill="#878789"/>
<path d="M10.0938 13.3281H2.65625C2.36247 13.3281 2.125 13.0551 2.125 12.7188V10.2812C2.125 8.6012 3.31659 7.23438 4.78125 7.23438H7.96875C9.43341 7.23438 10.625 8.6012 10.625 10.2812V12.7188C10.625 13.0551 10.3875 13.3281 10.0938 13.3281ZM3.1875 12.1094H9.5625V10.2812C9.5625 9.27334 8.84744 8.45312 7.96875 8.45312H4.78125C3.90256 8.45312 3.1875 9.27334 3.1875 10.2812V12.1094Z" fill="#878789"/>
</svg>
