<svg height="512pt" viewBox="0 -63 512 512" width="512pt" xmlns="http://www.w3.org/2000/svg" id="fi_1482599"><path d="m496.207031 72.542969h-70.835937c-8.71875 0-15.792969 7.070312-15.792969 15.789062v194.421875h-322.949219c-8.722656 0-15.792968 7.070313-15.792968 15.792969v72.539063c0 8.722656 7.070312 15.792968 15.792968 15.792968h409.578125c8.722657 0 15.792969-7.070312 15.792969-15.792968v-282.753907c0-8.71875-7.070312-15.789062-15.792969-15.789062zm0 0" fill="#99d3f2"></path><path d="m496.207031 72.542969h-70.835937c-8.71875 0-15.792969 7.070312-15.792969 15.789062v194.421875h-188.996094v104.125h275.625c8.722657 0 15.792969-7.070312 15.792969-15.792968v-282.753907c0-8.71875-7.070312-15.789062-15.792969-15.789062zm0 0" fill="#65b1fc"></path><path d="m425.371094 0h-409.578125c-8.722657 0-15.792969 7.070312-15.792969 15.792969v282.753906c0 8.71875 7.070312 15.789063 15.792969 15.789063h409.578125c8.722656 0 15.792968-7.070313 15.792968-15.789063v-282.753906c0-8.722657-7.070312-15.792969-15.792968-15.792969zm0 0" fill="#d4eeff"></path><path d="m425.371094 0h-204.789063v314.335938h204.789063c8.722656 0 15.792968-7.070313 15.792968-15.789063v-282.753906c0-8.722657-7.070312-15.792969-15.792968-15.792969zm0 0" fill="#99d3f2"></path><path d="m187.355469 55.308594h-114.390625c-8.722656 0-15.792969 7.070312-15.792969 15.789062v86.070313c0 8.722656 7.070313 15.792969 15.792969 15.792969h114.390625c8.722656 0 15.792969-7.070313 15.792969-15.792969v-86.070313c0-8.71875-7.070313-15.789062-15.792969-15.789062zm0 0" fill="#06ccab"></path><path d="m187.355469 55.308594h-57.195313v117.652344h57.195313c8.722656 0 15.792969-7.070313 15.792969-15.792969v-86.070313c0-8.71875-7.070313-15.789062-15.792969-15.789062zm0 0" fill="#08bc84"></path><g fill="#32393f"><path d="m366.945312 254.988281h-97.445312c-8.71875 0-15.789062-7.070312-15.789062-15.792969 0-8.71875 7.070312-15.789062 15.789062-15.789062h97.445312c8.722657 0 15.792969 7.070312 15.792969 15.789062 0 8.722657-7.070312 15.792969-15.792969 15.792969zm0 0"></path><path d="m313.71875 204.953125h-44.21875c-8.71875 0-15.789062-7.070313-15.789062-15.792969 0-8.71875 7.070312-15.789062 15.789062-15.789062h44.21875c8.71875 0 15.789062 7.070312 15.789062 15.789062 0 8.722656-7.070312 15.792969-15.789062 15.792969zm0 0"></path></g></svg>