<svg id="fi_4459446" enable-background="new 0 0 504.5 504.5" height="512" viewBox="0 0 504.5 504.5" width="512" xmlns="http://www.w3.org/2000/svg"><g><path d="m33.75 204.5-30-30v-22.5c0-4.142 3.358-7.5 7.5-7.5h15c4.142 0 7.5 3.358 7.5 7.5z" fill="#d0cdcd"></path><path d="m183.75 174.5h-60l-30 90h90z" fill="#464342"></path><path d="m3.75 174.5v60l120 30v-90z" fill="#625f5e"></path><path d="m93.75 414.5 30 90h30l30-90z" fill="#d0cdcd"></path><path d="m3.75 444.5v52.5c0 4.142 3.358 7.5 7.5 7.5h112.5v-90z" fill="#e7e6e6"></path><path d="m183.75 234.5h-60l-30 105 30 105h60z" fill="#ff835d"></path><path d="m123.75 234.5h-120v210h120v-30l-15-30 15-30v-30l-15-30 15-30z" fill="#fc9f63"></path><path d="m470.75 204.5 30-30v-22.5c0-4.142-3.358-7.5-7.5-7.5h-15c-4.142 0-7.5 3.358-7.5 7.5z" fill="#b8b4b3"></path><path d="m500.75 174.5h-30l-30 90 60-30z" fill="#464342"></path><path d="m320.75 174.5h150v90h-150z" fill="#625f5e"></path><path d="m500.75 444.5-60-30 30 90h22.5c4.142 0 7.5-3.358 7.5-7.5z" fill="#b8b4b3"></path><path d="m320.75 414.5 30 90h120v-90z" fill="#d0cdcd"></path><path d="m470.75 234.5-30 105 30 105h30v-210z" fill="#fc6356"></path><path d="m455.75 384.5 15-30v-30l-15-30 15-30v-30h-150v210h150v-30z" fill="#ff835d"></path><path d="m252.25 82.5 68.5 422h30v-355.859c0-2.577-1.323-4.974-3.505-6.347z" fill="#fc9f63"></path><path d="m320.75 144.5-68.5-62-94.995 59.794c-2.181 1.373-3.505 3.77-3.505 6.347v355.859h30l137-210v-30l-8.5-31.625 8.5-31.625z" fill="#f9bb69"></path><path d="m275.75 459.5v30l15 15h30v-30z" fill="#9c9897"></path><path d="m183.75 474.5v30h107v-45z" fill="#b8b4b3"></path><path d="m260.75 414.5 15 45 15 15h30v-30z" fill="#b8b4b3"></path><path d="m183.75 444.5v30h107v-45z" fill="#d0cdcd"></path><path d="m290.75 294.5-45 75 45 75h30v-150z" fill="#86e0ff"></path><path d="m252.25 294.5-30 75 30 75h38.5v-150z" fill="#c3efff"></path><g fill="#fff"><path d="m183.75 294.5h68.5v150h-68.5z"></path><path d="m33.75 354.5h30v60h-30z"></path><path d="m93.75 354.5h30v60h-30z"></path><path d="m33.75 264.5h30v60h-30z"></path><path d="m93.75 264.5h30v60h-30z"></path><path d="m380.75 354.5h30v60h-30z"></path><path d="m440.75 354.5h30v60h-30z"></path><path d="m380.75 264.5h30v60h-30z"></path><path d="m440.75 264.5h30v60h-30z"></path></g><path d="m262.25 22.5 20 20c0 8.284 6.716 15 15 15h7.5c4.142 0 7.5-3.358 7.5-7.5v-20c0-4.142-3.358-7.5-7.5-7.5z" fill="#f72349"></path><path d="m267.25 7.5h-15v35h30v-20c0-8.284-6.716-15-15-15z" fill="#fa4350"></path><path d="m267.25 264.5h53.5v-30l-26.75-15-26.75 15z" fill="#fc9f63"></path><path d="m294 174.5c-14.774 0-26.75 11.976-26.75 26.75v33.25h53.5v-33.25c0-14.774-11.976-26.75-26.75-26.75z" fill="#fff"></path><path d="m183.75 264.5h53.5v-30l-26.75-15-26.75 15z" fill="#fc9f63"></path><path d="m210.5 174.5c-14.774 0-26.75 11.976-26.75 26.75v33.25h53.5v-33.25c0-14.774-11.976-26.75-26.75-26.75z" fill="#fff"></path><path d="m259.75 87.221v-79.721c0-4.143-3.357-7.5-7.5-7.5-4.142 0-7.5 3.357-7.5 7.5v79.721z" fill="#b8b4b3"></path></g></svg>