<svg height="512" viewBox="0 0 64 64" width="512" xmlns="http://www.w3.org/2000/svg" id="fi_3925563"><g id="Ikon"><path d="m60.3779 23.5527h-56.7558a2.9877 2.9877 0 0 0 -1.6221 2.6646v28.7827a3.0033 3.0033 0 0 0 3 3h54a3.0033 3.0033 0 0 0 3-3v-28.7827a2.9877 2.9877 0 0 0 -1.6221-2.6646z" fill="#ffb300"></path><path d="m61.7627 25.1094a2.9257 2.9257 0 0 0 -1.3827-1.5576l-27.921-14.44a.9961.9961 0 0 0 -.918 0l-27.9189 14.439c-.843.4048-1.95 1.6814-.9 2.4624l22.34 15.4194c.168.1167 13.7989.12 13.9688.0054l22.36-15.14a1 1 0 0 0 .3718-1.1886z" fill="#ff9800"></path><path d="m50 6h-36a3 3 0 0 0 -3 3v22.7348l14.0625 9.6983c.167.1152 13.7586.0745 13.9245-.04l14.013-9.3931v-23a3 3 0 0 0 -3-3z" fill="#e0e0e0"></path><path d="m38.6689 12.2622c-2.1484-.7578-4.5312.085-6.665 2.3135-2.1269-2.2354-4.5127-3.082-6.6592-2.3325-2.3.8032-3.8476 3.3-3.8515 6.2143-.0059 4.0117 5.5127 9.8032 8.8027 12.8985a2.4664 2.4664 0 0 0 3.3672.0048c3.3-3.0854 8.8349-8.8608 8.84-12.873.0037-2.9141-1.5363-5.416-3.8342-6.2256z" fill="#f06292"></path><path d="m61.77 56.12a3.0087 3.0087 0 0 1 -2.77 1.88h-54a3.0075 3.0075 0 0 1 -2.69-1.68l25.59-18.58a6.9947 6.9947 0 0 1 8.21-.02z" fill="#ffca28"></path></g></svg>