<svg height="512" viewBox="0 0 32 32" width="512" xmlns="http://www.w3.org/2000/svg" id="fi_6317398"><g id="megaphone"><g><g><g><path d="m27.9199219 15.7729492-12.7285156-12.727539c-.2246094-.2246094-.5415039-.3320313-.855957-.2817383-.3134766.046875-.5864258.2402344-.7348633.5209961l-6.2929688 11.8876953-3.4301758 3.4296875c-1.5585938 1.5600586-1.5585938 4.0976563.0004883 5.65625l2.8291016 2.8291016c.7529297.7529297 1.7568359 1.1674805 2.8276367 1.1674805s2.0751953-.4145508 2.8286133-1.1674805l3.4296875-3.4296875 11.8876953-6.2939453c.2802734-.1484375.4736328-.4213867.5214844-.7353516.0468749-.3134766-.0576172-.6313477-.2822266-.8554688z" fill="#e0e0e0"></path></g><path d="m6 28.9658203c-1.0688477 0-2.0732422-.4160156-2.8291016-1.1708984-1.559082-1.5610352-1.559082-4.0986328 0-5.6577148.390625-.390625 1.0234375-.390625 1.4140625 0l4.2431641 4.2431641c.390625.390625.390625 1.0234375 0 1.4140625-.7548828.755371-1.7597656 1.1713866-2.828125 1.1713866z" fill="#78909c"></path><path d="m17.6669922 26.7338867-3.1826172-3.1826172c-.375-.375-1.0390625-.375-1.4140625 0l-2.1210938 2.1220703c-.390625.390625-.390625 1.0239258 0 1.4140625l3.1826172 3.1816406c.4707031.4707031 1.0986328.7304688 1.7670898.7304688s1.2963867-.2592773 1.7680664-.7304688c.9746095-.9746093.9746095-2.5605468.0000001-3.5351562z" fill="#78909c"></path><g><path d="m20 5.0004883c-.5527344 0-1-.4477539-1-1v-2c0-.5522461.4472656-1 1-1s1 .4477539 1 1v2c0 .5522461-.4472656 1-1 1z" fill="#90caf9"></path></g><g><path d="m29 12h-2c-.5527344 0-1-.4477539-1-1s.4472656-1 1-1h2c.5527344 0 1 .4477539 1 1s-.4472656 1-1 1z" fill="#90caf9"></path></g><g><path d="m24 8c-.2558594 0-.5117188-.0976563-.7070313-.2929688-.390625-.390625-.390625-1.0234375 0-1.4140625l2-2c.390625-.390625 1.0234375-.390625 1.4140625 0s.390625 1.0234375 0 1.4140625l-2 2c-.1953124.1953126-.4511718.2929688-.7070312.2929688z" fill="#90caf9"></path></g><g><path d="m15.8999023 23.5498047-3.5400391 3.5400391c-.75.75-1.75 1.1601563-2.8300781 1.1601563-1.0698242 0-2.0698242-.4101563-2.8198242-1.1601563l-2.8300781-2.8300781c-1.5600586-1.5595703-1.5600586-4.0996094 0-5.659668l3.5302734-3.5302734h.0097656z" fill="#ef5350"></path></g></g><g opacity=".1"><path d="m28.2001953 16.6298828c-.0498047.3100586-.2402344.590332-.5205078.7299805l-11.8896484 6.300293-.6000977.5996094 2.4799805 2.4702148c.9697266.9799805.9697266 2.5600586 0 3.5400391-.4697266.4702148-1.1000977.7299804-1.7700196.7299804s-1.2998047-.2597656-1.7700195-.7299805l-2.5698242-2.5800781c-.6098633.3598633-1.300293.5600586-2.0302734.5600586-.3598633 0-.7197266-.0600586-1.0698242-.1601563-.7001954.5600586-1.5498047.8803711-2.459961.8803711-1.0600586 0-2.0498047-.4101563-2.8100586-1.1601563l18.3803711-18.3798827 6.3496094 6.3398438c.2197265.2299804.3300781.540039.2802734.8598632z"></path><path d="m29 10h-2c-.5527344 0-1 .4477539-1 1s.4472656 1 1 1h2c.5527344 0 1-.4477539 1-1s-.4472656-1-1-1z"></path><path d="m26.7099609 5.7099609-2 2c-.2001953.1899414-.4501953.2900391-.7099609.2900391s-.5097656-.1000977-.7099609-.2900391l3.4199219-3.4199219c.3896484.3901368.3896484 1.0297852-.0000001 1.4199219z"></path></g></g></g></svg>