<svg id="fi_2669447" enable-background="new 0 0 512 512" height="512" viewBox="0 0 512 512" width="512" xmlns="http://www.w3.org/2000/svg"><g><path d="m435 160h-420c-8.284 0-15-6.716-15-15v-60c0-30.327 24.673-55 55-55h340c30.327 0 55 24.673 55 55v60c0 8.284-6.716 15-15 15z" fill="#ff5c5c"></path><path d="m395 30h-170v130h210c8.284 0 15-6.716 15-15v-60c0-30.327-24.673-55-55-55z" fill="#ff3838"></path><path d="m0 145v240c0 24.813 20.187 45 45 45h360c24.813 0 45-20.187 45-45v-240z" fill="#f4f1f1"></path><path d="m225 145v285h180c24.813 0 45-20.187 45-45v-240z" fill="#e7dfdd"></path><path d="m387 512c-68.925 0-125-56.075-125-125s56.075-125 125-125 125 56.075 125 125-56.075 125-125 125z" fill="#fff55a"></path><path d="m387 262v250c68.925 0 125-56.075 125-125s-56.075-125-125-125z" fill="#ffd728"></path><circle cx="387" cy="387" fill="#acceff" r="95"></circle><path d="m387 292v190c52.383 0 95-42.617 95-95s-42.617-95-95-95z" fill="#6ba7ff"></path><path d="m282 227.5h-25c-8.284 0-15-6.716-15-15s6.716-15 15-15h25c8.284 0 15 6.716 15 15s-6.716 15-15 15z" fill="#d0c8c3"></path><path d="m193 227.5h-25c-8.284 0-15-6.716-15-15s6.716-15 15-15h25c8.284 0 15 6.716 15 15s-6.716 15-15 15z" fill="#e7dfdd"></path><path d="m371 227.5h-25c-8.284 0-15-6.716-15-15s6.716-15 15-15h25c8.284 0 15 6.716 15 15s-6.716 15-15 15z" fill="#d0c8c3"></path><path d="m104 295h-25c-8.284 0-15-6.716-15-15s6.716-15 15-15h25c8.284 0 15 6.716 15 15s-6.716 15-15 15z" fill="#e7dfdd"></path><path d="m193 295h-25c-8.284 0-15-6.716-15-15s6.716-15 15-15h25c8.284 0 15 6.716 15 15s-6.716 15-15 15z" fill="#e7dfdd"></path><path d="m282 295h-25c-8.284 0-15-6.716-15-15s6.716-15 15-15h25c8.284 0 15 6.716 15 15s-6.716 15-15 15z" fill="#d0c8c3"></path><path d="m104 362.5h-25c-8.284 0-15-6.716-15-15s6.716-15 15-15h25c8.284 0 15 6.716 15 15s-6.716 15-15 15z" fill="#e7dfdd"></path><path d="m193 362.5h-25c-8.284 0-15-6.716-15-15s6.716-15 15-15h25c8.284 0 15 6.716 15 15s-6.716 15-15 15z" fill="#e7dfdd"></path><path d="m81 90c-8.284 0-15-6.716-15-15v-60c0-8.284 6.716-15 15-15s15 6.716 15 15v60c0 8.284-6.716 15-15 15z" fill="#284b87"></path><path d="m369 90c-8.284 0-15-6.716-15-15v-60c0-8.284 6.716-15 15-15s15 6.716 15 15v60c0 8.284-6.716 15-15 15z" fill="#112850"></path><path d="m273 90c-8.284 0-15-6.716-15-15v-60c0-8.284 6.716-15 15-15s15 6.716 15 15v60c0 8.284-6.716 15-15 15z" fill="#112850"></path><path d="m177 90c-8.284 0-15-6.716-15-15v-60c0-8.284 6.716-15 15-15s15 6.716 15 15v60c0 8.284-6.716 15-15 15z" fill="#284b87"></path><path d="m437 402h-50c-8.284 0-15-6.716-15-15v-50c0-8.284 6.716-15 15-15s15 6.716 15 15v35h35c8.284 0 15 6.716 15 15s-6.716 15-15 15z" fill="#284b87"></path><path d="m437 372h-35v-35c0-8.284-6.716-15-15-15v80h50c8.284 0 15-6.716 15-15s-6.716-15-15-15z" fill="#112850"></path></g></svg>