<svg width="122" height="122" viewBox="0 0 122 122" fill="none" xmlns="http://www.w3.org/2000/svg">
<path d="M19.271 114.375H83.875C84.8861 114.375 85.8559 113.973 86.5708 113.258C87.2858 112.543 87.6875 111.574 87.6875 110.562C87.6875 109.551 87.2858 108.582 86.5708 107.867C85.8559 107.152 84.8861 106.75 83.875 106.75H19.271C18.2049 106.749 17.1828 106.325 16.429 105.571C15.6751 104.817 15.2511 103.795 15.25 102.729V19.271C15.2511 18.2049 15.6751 17.1828 16.429 16.429C17.1828 15.6751 18.2049 15.2511 19.271 15.25H83.875C84.8861 15.25 85.8559 14.8483 86.5708 14.1333C87.2858 13.4184 87.6875 12.4486 87.6875 11.4375C87.6875 10.4264 87.2858 9.45664 86.5708 8.74166C85.8559 8.02667 84.8861 7.625 83.875 7.625H19.271C16.1833 7.62823 13.223 8.85626 11.0396 11.0396C8.85626 13.223 7.62823 16.1833 7.625 19.271V102.729C7.62823 105.817 8.85626 108.777 11.0396 110.96C13.223 113.144 16.1833 114.372 19.271 114.375Z" fill="#878789"/>
<path d="M66.9537 99.125H100.797C102.535 99.1251 104.251 98.729 105.813 97.9669C107.375 97.2048 108.743 96.0966 109.813 94.7267C110.882 93.3567 111.626 91.761 111.986 90.0606C112.347 88.3603 112.315 86.6002 111.894 84.9139L109.524 75.4402C108.498 71.3133 106.119 67.649 102.768 65.0317C99.4158 62.4144 95.2841 60.9951 91.0316 61H76.7194C72.4675 60.9954 68.3365 62.4148 64.9851 65.0316C61.6338 67.6485 59.2553 71.3121 58.2288 75.4383L55.859 84.9139C55.4375 86.6 55.4058 88.36 55.7664 90.0602C56.1269 91.7603 56.8702 93.356 57.9397 94.7259C59.0092 96.0959 60.3769 97.204 61.9388 97.9663C63.5007 98.7285 65.2158 99.1248 66.9537 99.125ZM63.2556 86.7641L65.6255 77.287C66.2413 74.8114 67.6684 72.6133 69.6791 71.0434C71.6898 69.4734 74.1684 68.6221 76.7194 68.625H91.0316C93.583 68.622 96.0618 69.4736 98.0727 71.044C100.084 72.6143 101.511 74.8129 102.126 77.2889L104.496 86.7641C104.636 87.3261 104.646 87.9127 104.526 88.4793C104.406 89.0459 104.158 89.5776 103.802 90.0341C103.445 90.4906 102.989 90.8599 102.469 91.1139C101.948 91.3679 101.377 91.4999 100.797 91.5H66.9537C66.3745 91.4999 65.803 91.3678 65.2825 91.1138C64.762 90.8597 64.3062 90.4905 63.9497 90.034C63.5932 89.5775 63.3455 89.0457 63.2252 88.4792C63.1049 87.9126 63.1153 87.3261 63.2556 86.7641Z" fill="#878789"/>
<path d="M83.875 22.875C80.8588 22.875 77.9104 23.7694 75.4026 25.4451C72.8947 27.1208 70.9401 29.5025 69.7858 32.2891C68.6316 35.0756 68.3296 38.1419 68.918 41.1001C69.5065 44.0583 70.9589 46.7756 73.0916 48.9084C75.2244 51.0411 77.9417 52.4936 80.8999 53.082C83.8581 53.6704 86.9244 53.3684 89.7109 52.2142C92.4975 51.0599 94.8792 49.1053 96.5549 46.5974C98.2306 44.0896 99.125 41.1412 99.125 38.125C99.1205 34.0818 97.5123 30.2056 94.6534 27.3466C91.7944 24.4877 87.9182 22.8795 83.875 22.875ZM83.875 45.75C82.3669 45.75 80.8927 45.3028 79.6388 44.465C78.3849 43.6271 77.4075 42.4362 76.8304 41.043C76.2533 39.6497 76.1023 38.1165 76.3965 36.6374C76.6907 35.1583 77.4169 33.7997 78.4833 32.7333C79.5497 31.6669 80.9083 30.9407 82.3874 30.6465C83.8665 30.3523 85.3997 30.5033 86.793 31.0804C88.1863 31.6575 89.3771 32.6349 90.215 33.8888C91.0528 35.1427 91.5 36.6169 91.5 38.125C91.498 40.1467 90.694 42.0849 89.2645 43.5145C87.8349 44.944 85.8967 45.748 83.875 45.75Z" fill="#878789"/>
<path d="M26.6875 30.5H45.75C46.7611 30.5 47.7309 30.0983 48.4458 29.3833C49.1608 28.6684 49.5625 27.6986 49.5625 26.6875C49.5625 25.6764 49.1608 24.7066 48.4458 23.9917C47.7309 23.2767 46.7611 22.875 45.75 22.875H26.6875C25.6764 22.875 24.7066 23.2767 23.9917 23.9917C23.2767 24.7066 22.875 25.6764 22.875 26.6875C22.875 27.6986 23.2767 28.6684 23.9917 29.3833C24.7066 30.0983 25.6764 30.5 26.6875 30.5Z" fill="#878789"/>
<path d="M26.6875 53.375C25.6764 53.375 24.7066 53.7767 23.9917 54.4917C23.2767 55.2066 22.875 56.1764 22.875 57.1875C22.875 58.1986 23.2767 59.1684 23.9917 59.8833C24.7066 60.5983 25.6764 61 26.6875 61H45.75C46.7611 61 47.7309 60.5983 48.4458 59.8833C49.1608 59.1684 49.5625 58.1986 49.5625 57.1875C49.5625 56.1764 49.1608 55.2066 48.4458 54.4917C47.7309 53.7767 46.7611 53.375 45.75 53.375H26.6875Z" fill="#878789"/>
<path d="M61 41.9375C61 40.9264 60.5983 39.9566 59.8833 39.2417C59.1684 38.5267 58.1986 38.125 57.1875 38.125H26.6875C25.6764 38.125 24.7066 38.5267 23.9917 39.2417C23.2767 39.9566 22.875 40.9264 22.875 41.9375C22.875 42.9486 23.2767 43.9184 23.9917 44.6333C24.7066 45.3483 25.6764 45.75 26.6875 45.75H57.1875C58.1986 45.75 59.1684 45.3483 59.8833 44.6333C60.5983 43.9184 61 42.9486 61 41.9375Z" fill="#878789"/>
</svg>
