<svg id="fi_4893115" enable-background="new 0 0 512 512" height="512" viewBox="0 0 512 512" width="512" xmlns="http://www.w3.org/2000/svg"><g><g><path d="m150.956 252.071c-5.174-.349-10.277.002-15.251.982 36.464 7.252 62.063 48.948 58.227 97.29-3.566 44.943-31.398 80.79-65.204 87.447 2.425.483 4.897.814 7.413.983 40.343 2.718 76.364-36.874 80.455-88.43 4.091-51.557-25.297-95.554-65.64-98.272z" fill="#fe646f"></path></g><path d="m128.728 437.79c33.806-6.657 61.637-42.504 65.204-87.447 3.836-48.342-21.762-90.037-58.226-97.29-6.512 1.283-12.802 3.647-18.74 6.953-5.266 2.932-11.689 2.932-16.955 0-10.473-5.831-22.042-8.74-33.99-7.935-40.343 2.718-69.731 46.715-65.64 98.272 4.091 51.556 40.112 91.148 80.455 88.43 10.007-.674 19.337-3.894 27.653-9.133 6.895 4.345 13.169 6.617 20.239 8.15z" fill="#fd8087"></path><path d="m442.143 104.972h-24.724l49.709 46.215-49.71 91.578h24.725l49.709-91.578z" fill="#d8ecfe"></path><path d="m417.419 104.972c-3.874 0-137.29 0-150.733 0l-49.71 46.215 49.71 91.578h150.732l49.71-91.578z" fill="#eaf6ff"></path><path d="m216.976 151.187h175.811v235.479h-175.811z" fill="#d8ecfe"></path><path d="m491.907 151.307-.055-.051v-.069h-.073l-49.293-46.05-49.644 45.93.064.12h-.119v235.478h99.065v-235.259z" fill="#c4e2ff"></path><path d="m491.852 151.256v-.069h-.073l-49.293-46.05-12.422 11.493 36.99 34.557h.074v.069l.054.051-.054.099v235.259h24.724v-235.259l.055-.099z" fill="#b3dafe"></path><g fill="#d8ecfe"><path d="m416.566 73.095c-4.59 0-135.661 0-140.609 0-5.121 0-9.272 4.151-9.272 9.272v22.606h159.151v-22.606c.001-5.121-4.15-9.271-9.27-9.272z"></path><path d="m441.215 77.977c-.005-.01-.009-.02-.014-.03.005.01.009.02.014.03z"></path></g><path d="m433.048 73.095h-24.724c5.121 0 9.272 4.151 9.272 9.272v22.606h24.724v-22.606c0-5.121-4.151-9.272-9.272-9.272z" fill="#b3dafe"></path><path d="m485.044 288.171-8.513-.253-.352.262c-.016-.01-.032-.021-.048-.031l-162.046 93.557 16.211 28.079 8.805 2.116 161.395-96.837z" fill="#9facba"></path><path d="m506.416 295.927c-6.041-10.464-19.421-14.049-29.885-8.008l-.4.231c3.058 1.847 5.709 4.464 7.621 7.777 6.041 10.464 2.456 23.844-8.008 29.885l-145.447 83.974 5.666 9.813 162.445-93.787c10.464-6.042 14.049-19.422 8.008-29.885z" fill="#8d9ca8"></path><g><path d="m108.488 289.587c-4.267 0-7.726-3.459-7.726-7.726 0-17.133-1.113-46.882 11.537-86.016 1.312-4.059 5.667-6.282 9.728-4.976 4.06 1.313 6.288 5.668 4.975 9.728-11.771 36.417-10.788 63.949-10.788 81.264 0 4.267-3.459 7.726-7.726 7.726z" fill="#d6694b"></path></g><path d="m91.61 225.933.001.002c-6.705-2.952-16.152-5.101-29.279-4.527-.575 13.127 1.575 22.574 4.527 29.279l-.002-.001c1.644 3.908 5.505 10.481 9.906 13.586l.002-.001c18.601 14.492 42.893-9.868 28.431-28.431l.001-.002c-3.107-4.401-9.68-8.262-13.587-9.905z" fill="#0ab69f"></path><path d="m481.833 396.279-13.512-22.943c-3.525-5.985-10.852-5.72-10.649-5.647-12.381-.176-12.884-14.992-21.471-19.09l-29.347-14.005c-6.443-3.074-13.562 1.44-19.275-5.615l-8.241-10.177c-7.166-8.849-18.417.095-25.71-8.588-8.707-10.366-9.684-12.483-14.348-13.804-29.874-8.454-28.4-8.223-30.886-8.223-18.325 0-15.162-.301-20.578 1.225 3.928 1.087 11.023 3.133 24.679 6.997 4.663 1.32 5.64 3.438 14.348 13.804 7.293 8.683 18.544-.261 25.71 8.588l8.241 10.177c5.713 7.055 12.832 2.541 19.275 5.615l29.347 14.005c3.597 1.717 4.08 3.176 11.588 14.079 2.116 3.072 5.847 4.954 9.883 5.011-.203-.072 7.124-.338 10.649 5.647l13.512 22.943c1.307 2.219 1.433 2.184 1.402 16.07h26.785c.031-13.886-.095-13.85-1.402-16.069z" fill="#f8e883"></path><path d="m481.833 396.279-13.512-22.943c-3.525-5.985-10.852-5.72-10.649-5.647-12.381-.176-12.884-14.992-21.471-19.09l-29.347-14.005c-6.443-3.074-13.562 1.44-19.275-5.615l-8.241-10.177c-7.166-8.849-18.417.095-25.71-8.588-8.707-10.366-9.684-12.483-14.348-13.804-29.874-8.454-28.4-8.223-30.886-8.223-18.325 0-15.162-.301-20.578 1.225 3.928 1.087 11.023 3.133 24.679 6.997 4.663 1.32 5.64 3.438 14.348 13.804 7.293 8.683 18.544-.261 25.71 8.588l8.241 10.177c5.713 7.055 12.832 2.541 19.275 5.615l29.347 14.005c3.597 1.717 4.08 3.176 11.588 14.079 2.116 3.072 5.847 4.954 9.883 5.011-.203-.072 7.124-.338 10.649 5.647l13.512 22.943c1.307 2.219 1.433 2.184 1.402 16.07h26.785c.031-13.886-.095-13.85-1.402-16.069z" fill="#f8e883"></path><path d="m287.817 289.412c-27.248 7.655-27.777 7.361-30.602 10.724l-8.465 10.077c-7.293 8.684-18.512-.301-25.71 8.588l-8.241 10.177c-5.819 7.188-12.663 2.46-19.275 5.615-31.991 15.267-31.609 14.54-33.84 17.78l-7.096 10.303c-3.662 5.317-10.285 5.088-10.198 5.03-4.341.043-8.312 2.197-10.333 5.629-14.673 24.913-14.867 24.376-14.867 27.839v11.175h343.44c.031-13.887-.095-13.851-1.402-16.07l-13.512-22.943c-3.525-5.985-10.852-5.72-10.649-5.647-12.381-.176-12.884-14.992-21.471-19.09l-29.347-14.005c-6.443-3.074-13.562 1.44-19.275-5.615l-8.241-10.177c-7.166-8.849-18.417.095-25.71-8.588-8.707-10.366-9.684-12.483-14.348-13.804-13.656-3.865-20.751-5.911-24.679-6.997h-6.179z" fill="#fff3be"></path><path d="m470.92 438.905h-338.537c-22.688 0-41.08-18.392-41.08-41.08 0-6.163 4.996-11.159 11.159-11.159h398.379c6.163 0 11.159 4.996 11.159 11.159 0 22.656-18.361 41.08-41.08 41.08z" fill="#9facba"></path><path d="m470.92 438.905h-338.537c-22.688 0-41.08-18.392-41.08-41.08 0-6.163 4.996-11.159 11.159-11.159h398.379c6.163 0 11.159 4.996 11.159 11.159 0 22.656-18.361 41.08-41.08 41.08z" fill="#9facba"></path><path d="m500.841 386.665h-24.724c6.163 0 11.159 4.996 11.159 11.159 0 22.688-18.392 41.08-41.08 41.08h24.724c22.688 0 41.08-18.392 41.08-41.08 0-6.163-4.996-11.159-11.159-11.159z" fill="#8d9ca8"></path></g></svg>