<svg width="14" height="14" viewBox="0 0 14 14" fill="none" xmlns="http://www.w3.org/2000/svg">
<g clip-path="url(#clip0_466_2018)">
<path d="M13.5531 12.7518L10.2211 9.28631C11.0778 8.26788 11.5472 6.98648 11.5472 5.65249C11.5472 2.53576 9.01142 0 5.89468 0C2.77795 0 0.242188 2.53576 0.242188 5.65249C0.242188 8.76923 2.77795 11.305 5.89468 11.305C7.06475 11.305 8.17976 10.9521 9.13307 10.2821L12.4904 13.7739C12.6307 13.9196 12.8195 14 13.0217 14C13.2132 14 13.3948 13.927 13.5327 13.7943C13.8256 13.5124 13.835 13.045 13.5531 12.7518ZM5.89468 1.47456C8.19844 1.47456 10.0726 3.34873 10.0726 5.65249C10.0726 7.95625 8.19844 9.83043 5.89468 9.83043C3.59092 9.83043 1.71675 7.95625 1.71675 5.65249C1.71675 3.34873 3.59092 1.47456 5.89468 1.47456Z" fill="#878789"/>
</g>
<defs>
<clipPath id="clip0_466_2018">
<rect width="14" height="14" fill="white"/>
</clipPath>
</defs>
</svg>
