<svg width="64" height="64" viewBox="0 0 64 64" fill="none" xmlns="http://www.w3.org/2000/svg">
<path d="M2.5 34L4 33L7 34.75L5.5 35.75L2.5 34Z" fill="#609BA2"/>
<path d="M2.5 34V37L5.5 38.75V35.75L2.5 34Z" fill="#527880"/>
<path d="M5.5 35.75L7 34.75V37.75L5.5 38.75V35.75Z" fill="#354D5E"/>
<path d="M20.5 59.75V53.5L23.25 48.75V39L60.75 17.25V35.75L50 42.25V40.1753L48.25 41.25L39 46.75V48.75L20.5 59.75Z" fill="#D57241"/>
<path d="M20.5 59.25L1.75 48.25V42.5L5.5 38.75V29.25L22.75 39.25L23.25 39V48.75L20.5 53.5V59.25Z" fill="#FFB230"/>
<path d="M1.75 42.5L20.5 53.5V59.25L1.75 48.25V42.5Z" fill="#F09548"/>
<path d="M5.5 38.75L23.25 48.75V39L22.75 39.25L5.5 29.25V38.75Z" fill="#527880"/>
<path d="M3.5 25L42.75 2.75L46.25 2.5L59.25 10.75L61.5 14L22.75 36.5L21.25 33L7.25 24.75L3.5 25Z" fill="#FFB230"/>
<path d="M7.25 32.25V37.75L13 41V35.75L7.25 32.25Z" fill="#64D2E4"/>
<path d="M21.5 40.25L14.75 36.5V42L21.5 45.75V40.25Z" fill="#64D2E4"/>
<path d="M60.75 17.25L23.25 39V48.75L31.5 44V51.5L37.5 48V40.5L60.75 27.25V17.25Z" fill="#354D5E"/>
<path d="M25 40.4993V45.7493L29.6667 43.166V37.916L25 40.4993Z" fill="#2CA8C8"/>
<path d="M7.25 24.75L46.25 2.5L42.75 2.75L3.5 25L7.25 24.75Z" fill="#FEE571"/>
<path d="M3.5 25V28.25L5.5 29.25L22.75 39.25V36.5L21.25 33L7.25 24.75L3.5 25Z" fill="#F09548"/>
<path d="M11.041 28.5V31.2083L15.312 33.75V31.0417L11.041 28.5Z" fill="#FDFECC"/>
<path d="M38.75 32.5V37.75L43 35.3125V30.0625L38.75 32.5Z" fill="#2CA8C8"/>
<path d="M44.5 29V34.5L48.5 32.3125V26.8125L44.5 29Z" fill="#2CA8C8"/>
<path d="M50 25.834V31.5007L54 29.2507V23.5215L50 25.834Z" fill="#2CA8C8"/>
<path d="M59.25 20.75L55.5 22.75V28.25L59.25 26.25V20.75Z" fill="#2CA8C8"/>
<path d="M3 44.75V47.5L6 49.25V46.5L3 44.75Z" fill="#FDFECC"/>
<path d="M16 52.5V55.25L19 57V54.25L16 52.5Z" fill="#FDFECC"/>
<path d="M1.75 48.25L20.5 59.25L21.75 58.5L22.75 59.25L20.5 60.5L0 48.5L1.75 47.5V48.25Z" fill="#609BA2"/>
<path d="M0 48.5V50.25L20.5 62.25V60.5L0 48.5Z" fill="#527880"/>
<path d="M20.5 62.25L22.75 61V59.25L20.5 60.5V62.25Z" fill="#354D5E"/>
<path d="M61.5 14V16.75L60.75 17.25L23.25 39L22.75 39.25V36.5L61.5 14Z" fill="#C46529"/>
<path d="M21.25 33L59.25 10.75L61.5 14L22.75 36.5L21.25 33Z" fill="#D5773C"/>
<path d="M33 35.75V49L36 47.25V34L33 35.75Z" fill="#C0C297"/>
<path d="M23.25 46L25 45L28 46.75L26.25 47.75L23.25 46Z" fill="#609BA2"/>
<path d="M23.25 46V48.75L26.25 50.5V47.75L23.25 46Z" fill="#527880"/>
<path d="M26.25 47.75L28 46.75V49.5L26.25 50.5V47.75Z" fill="#354D5E"/>
<path d="M30.5 51.7501L28.75 50.7501C28.2603 50.5869 27.3941 50.7534 26.75 51.1251C24.955 52.1606 23.5 54.791 23.5 57.0001C23.5 58.1349 23.8835 58.8779 24.5 59.2501L26.25 60.2501C26.834 60.6031 27.6265 60.5853 28.5 60.0814C30.295 59.0459 31.75 56.4155 31.75 54.2064C31.75 52.9255 31.261 52.0431 30.5 51.7501Z" fill="#609BA2"/>
<path d="M31.75 54.206C31.75 56.4151 30.295 59.0455 28.5 60.081C27.6265 60.5849 26.834 60.6027 26.25 60.2497C25.634 59.8774 25.25 59.0903 25.25 57.956C25.25 55.7469 26.705 53.1165 28.5 52.081C29.2541 51.646 29.9485 51.5373 30.5 51.7497C31.261 52.0427 31.75 52.9251 31.75 54.206Z" fill="#354D5E"/>
<path d="M30.1963 55.1273C30.1963 56.1262 29.5246 57.3156 28.696 57.7839C28.5458 57.8888 28.3701 57.9513 28.1874 57.9647C28.0046 57.9782 27.8216 57.942 27.6577 57.8602C27.3733 57.6919 27.1963 57.3359 27.1963 56.823C27.1963 55.8242 27.8677 54.6347 28.696 54.1663C28.8296 54.0753 28.9815 54.0147 29.1411 53.9888C29.3006 53.963 29.4639 53.9725 29.6194 54.0167C29.9704 54.1491 30.1963 54.5481 30.1963 55.1273Z" fill="#2CA8C8"/>
<path d="M59 35.5001L57.25 34.5001C56.7603 34.3369 55.8941 34.5034 55.25 34.8751C53.455 35.9106 52 38.541 52 40.7501C52 41.8849 52.3835 42.6279 53 43.0001L54.75 44.0001C55.334 44.3531 56.1265 44.3353 57 43.8314C58.795 42.7959 60.25 40.1655 60.25 37.9564C60.25 36.6755 59.761 35.7931 59 35.5001Z" fill="#609BA2"/>
<path d="M60.25 37.956C60.25 40.1651 58.795 42.7955 57 43.831C56.1265 44.3349 55.334 44.3527 54.75 43.9997C54.134 43.6274 53.75 42.8403 53.75 41.706C53.75 39.4969 55.205 36.8665 57 35.831C57.7541 35.396 58.4485 35.2873 59 35.4997C59.761 35.7927 60.25 36.6751 60.25 37.956Z" fill="#354D5E"/>
<path d="M58.6963 38.8773C58.6963 39.8762 58.0246 41.0656 57.196 41.5339C57.0458 41.6388 56.8701 41.7013 56.6874 41.7147C56.5046 41.7282 56.3216 41.692 56.1577 41.6102C55.8733 41.4419 55.6963 41.0859 55.6963 40.573C55.6963 39.5742 56.3677 38.3847 57.196 37.9163C57.3296 37.8253 57.4815 37.7647 57.6411 37.7388C57.8006 37.713 57.9639 37.7225 58.1194 37.7667C58.4704 37.8991 58.6963 38.2981 58.6963 38.8773Z" fill="#2CA8C8"/>
<path d="M50 42.2505L48.25 41.2505L50 40.1758V42.2505Z" fill="#FFB230"/>
</svg>
