<svg id="fi_4074130" enable-background="new 0 0 512.004 512.004" height="512" viewBox="0 0 512.004 512.004" width="512" xmlns="http://www.w3.org/2000/svg"><g><path d="m80.819 443.449c21.208 18.91 42.486 29.235 54.983 34.198v19.356c0 8.284 6.716 15 15 15h180c8.284 0 15-6.716 15-15v-19.356c12.497-4.963 33.775-15.289 54.982-34.198 27.829-24.813 60.669-69.444 64.62-143.446h-449.205c3.951 74.002 36.791 118.633 64.62 143.446z"></path><path d="m428.783 222.643-23.304 47.36h40.185c.044-12.968-3.35-25.839-10.065-37.49-2.018-3.499-4.306-6.79-6.816-9.87z"></path><path d="m487.425 1.545c-7.438-3.659-16.425-.597-20.082 6.836l-84.893 172.525c-4.061-7.941-9.517-15.119-16.148-21.169l67.959-138.11c3.657-7.433.597-16.424-6.836-20.081-7.438-3.66-16.425-.598-20.082 6.835l-66.903 135.962c-14.728-5.14-30.618-5.558-45.446-1.132-14.1-14.701-33.626-23.208-54.192-23.208s-40.093 8.506-54.192 23.208c-19.266-5.75-40.331-3.358-58.297 6.996-17.823 10.271-30.456 27.346-35.26 47.047-19.701 4.804-36.776 17.437-47.046 35.259-6.716 11.651-10.11 24.522-10.066 37.49h336.103l122.217-248.377c3.657-7.433.596-16.424-6.836-20.081zm-306.623 238.459c-8.284 0-15-6.716-15-15s6.716-15 15-15 15 6.716 15 15-6.716 15-15 15zm60-30c-8.284 0-15-6.716-15-15s6.716-15 15-15 15 6.716 15 15-6.716 15-15 15zm60 30c-8.284 0-15-6.716-15-15s6.716-15 15-15 15 6.716 15 15-6.716 15-15 15z"></path></g></svg>