<svg id="fi_3422804" enable-background="new 0 0 24 24" height="512" viewBox="0 0 24 24" width="512" xmlns="http://www.w3.org/2000/svg"><path d="m11.515 23.103.67-3.351c.029-.146.101-.279.205-.383l7.372-7.372c.662-.661 1.738-.661 2.4 0l1.341 1.341c.662.662.662 1.739 0 2.401l-7.372 7.372c-.104.105-.238.176-.383.205l-3.351.67c-.53.103-.985-.362-.882-.883z"></path><path d="m16 4h-1v-3c0-.55-.45-1-1-1h-11c-.82 0-1.58.34-2.12.88s-.88 1.29-.88 2.12v16c0 1.65 1.35 3 3 3h6.69l.53-2.64c.11-.54.38-1.03.76-1.41l6.02-6.02v-6.93c0-.55-.45-1-1-1zm-3 0h-10c-.55 0-1-.45-1-1s.45-1 1-1h10z"></path></svg>