<svg id="fi_3288848" enable-background="new 0 0 512 512" height="512" viewBox="0 0 512 512" width="512" xmlns="http://www.w3.org/2000/svg"><path clip-rule="evenodd" d="m256.003 512.003c-141.165 0-256.003-114.837-256.003-256.003 0-141.158 114.844-256.003 256.003-256.003s255.997 114.845 255.997 256.003c0 141.165-114.832 256.003-255.997 256.003zm117.469-168.548c5.902-7.925 4.262-19.126-3.665-25.029l-95.914-71.402v-154.685c0-9.871-8.006-17.887-17.889-17.887-9.884 0-17.885 8.016-17.885 17.887v163.661c0 5.657 2.669 10.979 7.21 14.355l103.113 76.767c3.212 2.392 6.957 3.543 10.68 3.543 5.453 0 10.843-2.492 14.35-7.21z" fill-rule="evenodd"></path></svg>