<svg width="28" height="28" viewBox="0 0 28 28" fill="none" xmlns="http://www.w3.org/2000/svg">
<path d="M25.0848 16.1268L23.3261 14.5693C23.3261 14.473 23.3086 13.3005 23.2998 13.213C23.2998 13.213 25.0323 11.603 25.0411 11.5943C25.2511 11.3143 25.3911 10.9993 25.2598 10.658C25.1461 10.2555 25.0061 9.84428 24.8048 9.38053C24.6211 8.95178 24.4023 8.52303 24.1573 8.10303C23.9998 7.83178 23.6673 7.64803 23.3436 7.66553C22.5561 7.71803 21.7686 7.77053 20.9811 7.82303C20.9286 7.75303 20.0886 6.93053 20.0186 6.86928C20.0448 6.08178 20.0711 5.30303 20.0973 4.51553C20.1061 4.20053 19.9223 3.86803 19.6511 3.71928C18.8023 3.23803 17.9098 2.88803 16.9911 2.66053C16.6673 2.58178 16.3348 2.68678 16.1248 2.93178L14.5673 4.69053C14.1123 4.66428 13.6573 4.67303 13.2111 4.71678L11.6011 2.98428C11.3823 2.74803 11.0498 2.65178 10.7348 2.73053C9.81607 2.98428 8.90607 3.36928 8.08357 3.85928C7.80357 4.03428 7.64607 4.34053 7.66357 4.66428L7.82107 7.02678C7.47107 7.33303 7.15607 7.65678 6.86732 7.99803L4.50482 7.91928C4.18982 7.90178 3.87482 8.07678 3.71732 8.36553C3.23607 9.21428 2.88607 10.1068 2.65857 11.0255C2.57982 11.3405 2.68482 11.673 2.92982 11.8918L4.68857 13.4493C4.66232 13.9043 4.67107 14.3505 4.71482 14.8055L2.98232 16.4155C2.74607 16.6343 2.64982 16.9668 2.72857 17.2818C2.97357 18.2005 3.37607 19.093 3.84857 19.9155C4.01482 20.2043 4.32107 20.3705 4.66232 20.353L7.02482 20.1955C7.33107 20.5455 7.65482 20.8605 7.99607 21.1493L7.91732 23.5118C7.90857 23.8355 8.07482 24.1418 8.36357 24.2993C9.17732 24.763 10.0348 25.0955 10.9448 25.3318C11.2686 25.4193 11.6536 25.358 11.8898 25.0868L13.4473 23.328C13.8936 23.3455 14.3573 23.3455 14.8036 23.3018C14.8036 23.3018 16.4136 25.0343 16.4311 25.0518C16.6761 25.3055 17.0261 25.3493 17.3761 25.253C18.2598 25.008 19.1173 24.623 19.9136 24.1593C20.1848 24.0105 20.3686 23.6605 20.3511 23.3455C20.2986 22.558 20.2461 21.7705 20.1936 20.983C20.3861 20.8168 20.5611 20.6418 20.7361 20.458C20.7886 20.3968 21.0598 20.0205 21.1473 20.0205C21.9348 20.0468 22.7136 20.073 23.5011 20.0993C23.8073 20.1168 24.1398 19.9243 24.2973 19.653C24.7611 18.8305 25.1023 17.9643 25.3298 17.0718C25.4173 16.7393 25.3561 16.363 25.0848 16.1268ZM14.0073 18.3843C11.5923 18.3843 9.63232 16.4243 9.63232 14.0093C9.63232 11.5943 11.5923 9.63428 14.0073 9.63428C16.4223 9.63428 18.3823 11.5943 18.3823 14.0093C18.3823 16.4243 16.4223 18.3843 14.0073 18.3843Z" fill="#878789"/>
</svg>
