<svg width="512" height="512" viewBox="0 0 512 512" fill="none" xmlns="http://www.w3.org/2000/svg">
<path d="M421.507 439.792C419.104 439.793 416.725 439.32 414.505 438.398C412.286 437.477 410.271 436.126 408.575 434.424L77.5305 103.423C74.0969 99.9895 72.168 95.3326 72.168 90.4768C72.168 85.621 74.0969 80.9641 77.5305 77.5305C80.9641 74.0969 85.621 72.168 90.4768 72.168C95.3326 72.168 99.9895 74.0969 103.423 77.5305L434.468 408.575C437.019 411.135 438.754 414.393 439.456 417.938C440.158 421.483 439.794 425.157 438.411 428.496C437.028 431.835 434.687 434.689 431.684 436.7C428.681 438.71 425.15 439.786 421.536 439.792H421.507Z" fill="#878789"/>
<path d="M90.4931 439.792C86.8766 439.792 83.3414 438.72 80.3338 436.712C77.3261 434.704 74.9809 431.849 73.5942 428.509C72.2074 425.169 71.8414 421.493 72.5423 417.945C73.2432 414.398 74.9795 411.137 77.5321 408.575L408.577 77.5305C410.277 75.8304 412.295 74.4817 414.517 73.5616C416.738 72.6415 419.119 72.168 421.523 72.168C423.927 72.168 426.308 72.6415 428.529 73.5616C430.751 74.4817 432.769 75.8304 434.469 77.5305C436.169 79.2306 437.518 81.249 438.438 83.4703C439.358 85.6916 439.832 88.0724 439.832 90.4768C439.832 92.8811 439.358 95.2619 438.438 97.4833C437.518 99.7046 436.169 101.723 434.469 103.423L103.425 434.468C101.725 436.162 99.7085 437.505 97.4894 438.418C95.2704 439.332 92.8929 439.799 90.4931 439.792Z" fill="#878789"/>
</svg>
