<svg width="17" height="18" viewBox="0 0 17 18" fill="none" xmlns="http://www.w3.org/2000/svg">
<path d="M4.55385 2.17971L3.38051 0.928157C1.41128 2.5298 0.114872 4.9979 0 7.79858H1.64103C1.69915 6.68865 1.99124 5.60699 2.49556 4.63415C2.99988 3.66131 3.70344 2.82234 4.55385 2.17971ZM14.72 7.79858H16.361C16.2379 4.9979 14.9415 2.5298 12.9805 0.928157L11.8154 2.17971C12.6622 2.8255 13.3626 3.6654 13.8652 4.63772C14.3678 5.61004 14.6599 6.6901 14.72 7.79858ZM13.1036 8.23619C13.1036 5.54929 11.7579 3.29999 9.41128 2.70484V2.1097C9.41128 1.38327 8.86154 0.796875 8.18051 0.796875C7.49949 0.796875 6.94974 1.38327 6.94974 2.1097V2.70484C4.59487 3.29999 3.25744 5.54053 3.25744 8.23619V12.6123L1.61641 14.3627V15.2379H14.7446V14.3627L13.1036 12.6123V8.23619ZM8.18051 17.8635C8.29538 17.8635 8.40205 17.8548 8.50872 17.8285C9.04205 17.706 9.47692 17.3209 9.69026 16.7958C9.77231 16.5857 9.81333 16.3582 9.81333 16.1131H6.53128C6.53949 17.0759 7.26974 17.8635 8.18051 17.8635Z" fill="#FF2B57"/>
</svg>
