<svg width="18" height="16" viewBox="0 0 18 16" fill="none" xmlns="http://www.w3.org/2000/svg">
<path d="M2.50317 9.07867V11.6555C2.50317 12.325 2.84754 12.9486 3.39854 13.2695L7.70322 15.773C8.21978 16.0757 8.83965 16.0757 9.35621 15.773L13.6609 13.2695C14.2119 12.9486 14.5563 12.325 14.5563 11.6555V9.07867L9.35621 12.1049C8.83965 12.4075 8.21978 12.4075 7.70322 12.1049L2.50317 9.07867ZM7.70322 0.220089L0.445534 4.43846C-0.148511 4.78693 -0.148511 5.70397 0.445534 6.05244L7.70322 10.2708C8.21978 10.5734 8.83965 10.5734 9.35621 10.2708L16.2781 6.24502V11.6647C16.2781 12.1691 16.6656 12.5817 17.1391 12.5817C17.6126 12.5817 18 12.1691 18 11.6647V5.7865C18 5.4472 17.8278 5.14458 17.5523 4.97951L9.35621 0.220089C9.10185 0.0755866 8.818 0 8.52971 0C8.24143 0 7.95758 0.0755866 7.70322 0.220089Z" fill="#FF4900"/>
</svg>
