<svg id="fi_4203951" enable-background="new 0 0 480 480" height="512" viewBox="0 0 480 480" width="512" xmlns="http://www.w3.org/2000/svg"><g><path id="Person_1_" d="m240 0c-132.336 0-240 107.656-240 240s107.664 240 240 240 240-107.656 240-240-107.664-240-240-240zm0 96c44.108 0 80 35.892 80 80s-35.892 80-80 80-80-35.892-80-80 35.892-80 80-80zm0 336c-55.248 0-104.976-23.592-140.04-61.068 12.852-47.684 56.352-82.932 108.04-82.932h64c51.688 0 95.188 35.248 108.04 82.932-35.064 37.476-84.792 61.068-140.04 61.068z"></path></g></svg>