<svg width="28" height="28" viewBox="0 0 28 28" fill="none" xmlns="http://www.w3.org/2000/svg">
<path d="M17.6143 23.8008C17.1999 25.4108 15.7383 26.6008 13.9985 26.6008C12.2588 26.6008 10.7972 25.4108 10.3828 23.8008H17.6143Z" fill="#09o9o9o9o9o9o9o9o9o9o9o9o9o4"/>
<path d="M24.1121 20.376C23.2875 20.0153 21.9323 18.8299 21.9323 14.9337V10.7337C21.9323 7.08906 19.3194 4.05852 15.8656 3.40286L15.399 3.31419C15.399 3.05892 15.399 2.92079 15.399 2.80039C15.399 2.02712 14.7722 1.40039 13.999 1.40039C13.2257 1.40039 12.599 2.02712 12.599 2.80039V3.31419L12.1323 3.40286C8.67849 4.05852 6.06562 7.08906 6.06562 10.7337V14.9337C6.06562 18.8299 4.71043 20.0153 3.88583 20.376C3.50456 20.5426 3.26562 20.9239 3.26562 21.3397C3.26562 21.9253 3.74069 22.4004 4.32636 22.4004H23.6711C24.2572 22.4004 24.7323 21.9253 24.7323 21.3397C24.7323 20.9239 24.4934 20.5426 24.1121 20.376Z" fill="#5"/>
</svg>
