<svg width="28" height="28" viewBox="0 0 28 28" fill="none" xmlns="http://www.w3.org/2000/svg">
<g clip-path="url(#clip0_320_217)">
<path d="M26.8333 15.1419H1.16667C0.522664 15.1419 0 14.6193 0 13.9753C0 13.3313 0.522664 12.8086 1.16667 12.8086H26.8333C27.4773 12.8086 28 13.3313 28 13.9753C28 14.6193 27.4773 15.1419 26.8333 15.1419Z" fill="#878789"/>
<path d="M26.8333 6.19661H1.16667C0.522664 6.19661 0 5.67395 0 5.02995C0 4.38595 0.522664 3.86328 1.16667 3.86328H26.8333C27.4773 3.86328 28 4.38595 28 5.02995C28 5.67395 27.4773 6.19661 26.8333 6.19661Z" fill="#878789"/>
<path d="M26.8333 24.0872H1.16667C0.522664 24.0872 0 23.5646 0 22.9206C0 22.2766 0.522664 21.7539 1.16667 21.7539H26.8333C27.4773 21.7539 28 22.2766 28 22.9206C28 23.5646 27.4773 24.0872 26.8333 24.0872Z" fill="#878789"/>
</g>
<defs>
<clipPath id="clip0_320_217">
<rect width="28" height="28" fill="white"/>
</clipPath>
</defs>
</svg>
