<svg width="28" height="28" viewBox="0 0 28 28" fill="none" xmlns="http://www.w3.org/2000/svg">
<g clip-path="url(#clip0_320_268)">
<path d="M26.9385 5.78537L14.7935 0.319534C14.5356 0.204166 14.2564 0.144531 13.9739 0.144531C13.6914 0.144531 13.4121 0.204166 13.1543 0.319534L1.05598 5.78537C0.746783 5.91068 0.48137 6.12433 0.2929 6.39963C0.104431 6.67492 0.0012618 6.99964 -0.00371713 7.33323C-0.00869607 7.66682 0.084736 7.99448 0.264906 8.27527C0.445075 8.55607 0.703994 8.77754 1.00931 8.91203L5.25014 10.9829C5.24733 11.0159 5.24733 11.049 5.25014 11.082V17.1312C5.25014 17.2218 5.27123 17.3111 5.31173 17.3921C5.35223 17.4731 5.41103 17.5435 5.48348 17.5979C7.9423 19.4346 10.931 20.4234 14.0001 20.4154C16.0112 20.4129 17.9991 19.9855 19.8335 19.1612V21.092C19.4912 21.213 19.195 21.4375 18.986 21.7343C18.777 22.0312 18.6654 22.3857 18.6668 22.7487V25.6654C18.6668 25.8201 18.7283 25.9684 18.8377 26.0778C18.9471 26.1872 19.0954 26.2487 19.2501 26.2487H21.5835C21.7382 26.2487 21.8866 26.1872 21.996 26.0778C22.1054 25.9684 22.1668 25.8201 22.1668 25.6654V22.7487C22.1658 22.3876 22.0531 22.0357 21.8443 21.7412C21.6354 21.4467 21.3406 21.224 21.0001 21.1037V18.5779C21.5263 18.2842 22.0329 17.9568 22.5168 17.5979C22.5893 17.5435 22.6481 17.4731 22.6886 17.3921C22.7291 17.3111 22.7501 17.2218 22.7501 17.1312V11.082C22.7534 11.051 22.7534 11.0197 22.7501 10.9887L27.0085 8.91203C27.3136 8.77699 27.5721 8.55503 27.7518 8.27389C27.9314 7.99275 28.0243 7.6649 28.0187 7.3313C28.0131 6.9977 27.9093 6.67315 27.7203 6.3982C27.5313 6.12325 27.2654 5.91009 26.956 5.78537H26.9385ZM21.0001 25.082H19.8335V22.7487C19.8335 22.594 19.8949 22.4456 20.0043 22.3362C20.1137 22.2268 20.2621 22.1654 20.4168 22.1654C20.5715 22.1654 20.7199 22.2268 20.8293 22.3362C20.9387 22.4456 21.0001 22.594 21.0001 22.7487V25.082ZM6.41681 16.8337V11.5429L13.131 14.8095C13.404 14.9409 13.703 15.0091 14.006 15.0091C14.3089 15.0091 14.608 14.9409 14.881 14.8095L19.8335 12.3945V17.8895C17.7116 18.9466 15.3422 19.4068 12.9788 19.2208C10.6155 19.0348 8.34725 18.2097 6.41681 16.8337ZM21.5835 16.8337C21.391 16.9737 21.1985 17.0962 21.0001 17.2187V11.8287L21.5835 11.5429V16.8337ZM26.4835 7.86203L20.6501 10.7145C20.5065 10.5216 20.3261 10.359 20.1193 10.2362L14.286 7.07453C14.1506 6.99718 13.9901 6.97677 13.8396 7.01779C13.6892 7.05882 13.5613 7.15791 13.4839 7.29328C13.4065 7.42865 13.3861 7.58921 13.4272 7.73963C13.4682 7.89005 13.5673 8.01801 13.7026 8.09537L19.4951 11.2512L14.3443 13.7595C14.2318 13.8114 14.1094 13.8382 13.9856 13.8382C13.8617 13.8382 13.7393 13.8114 13.6268 13.7595L1.51681 7.86203C1.4169 7.81857 1.33115 7.74799 1.26929 7.6583C1.20743 7.5686 1.17193 7.46337 1.16681 7.35453C1.17501 7.2441 1.21447 7.13828 1.28058 7.04945C1.34669 6.96061 1.43672 6.89243 1.54015 6.85287L13.6385 1.3812C13.7453 1.33497 13.8604 1.31111 13.9768 1.31111C14.0932 1.31111 14.2083 1.33497 14.3151 1.3812L26.4601 6.85287C26.5636 6.89243 26.6536 6.96061 26.7197 7.04945C26.7858 7.13828 26.8253 7.2441 26.8335 7.35453C26.8335 7.46465 26.8001 7.57218 26.7376 7.66283C26.6751 7.75348 26.5864 7.82296 26.4835 7.86203Z" fill="#878789"/>
</g>
<defs>
<clipPath id="clip0_320_268">
<rect width="28" height="28" fill="white"/>
</clipPath>
</defs>
</svg>
