<svg width="28" height="28" viewBox="0 0 28 28" fill="none" xmlns="http://www.w3.org/2000/svg">
<g clip-path="url(#clip0_320_90)">
<path d="M13.9973 0.00463183C13.3351 -0.0103589 12.6548 0.206144 12.0963 0.727759L1.02694 10.316C1.02445 10.3163 1.01766 10.3237 1.01203 10.3285C1.00868 10.3313 1.00537 10.3342 1.00209 10.3371C-0.196264 11.3994 -0.338599 13.2627 0.676554 14.5069C1.4561 15.4621 2.73042 15.7733 3.82253 15.3854V26.0869C3.82253 27.1332 4.68471 27.9954 5.73099 27.9954H22.271C23.3173 27.9954 24.1794 27.1332 24.1794 26.0869V15.3854C25.2957 15.7821 26.5983 15.4451 27.3701 14.451C28.3489 13.1899 28.1669 11.3493 26.9638 10.3135C23.1577 7.01542 19.2212 3.62811 15.7877 0.66812C15.3035 0.2654 14.6594 0.0196225 13.9973 0.00463183ZM14.0072 1.28067C14.3699 1.29631 14.72 1.43603 14.9739 1.6472C18.8587 4.99591 22.8017 8.39597 26.1252 11.2628C26.8105 11.8408 26.9257 12.9482 26.365 13.6707C25.8027 14.3948 24.8229 14.5008 24.1359 13.9217L24.1347 13.9205C24.1275 13.9145 24.1253 13.9128 24.1284 13.9155L14.4172 5.52251C14.1782 5.31578 13.8237 5.31578 13.5847 5.52251C10.3559 8.3134 7.12487 11.1031 3.89708 13.8944C3.22295 14.4918 2.2402 14.4105 1.66185 13.7018C1.0856 12.9955 1.17397 11.888 1.84449 11.2914C5.71639 7.93481 9.65055 4.53092 12.9647 1.65714C13.2693 1.37275 13.6445 1.26502 14.0072 1.28067ZM14.001 6.84452L22.9071 14.5405V26.0869C22.9071 26.4503 22.6344 26.7231 22.271 26.7231H17.8179V20.3615C17.8179 19.3153 16.9557 18.4531 15.9094 18.4531H12.0925C11.0462 18.4531 10.1841 19.3153 10.1841 20.3615V26.7231H5.73099C5.36756 26.7231 5.09484 26.4503 5.09484 26.0869V14.5405L14.001 6.84452ZM12.0925 19.7254H15.9094C16.2729 19.7254 16.5456 19.9981 16.5456 20.3615V26.7231H11.4564V20.3615C11.4564 19.9981 11.7291 19.7254 12.0925 19.7254Z" fill="#878789"/>
</g>
<defs>
<clipPath id="clip0_320_90">
<rect width="28" height="28" fill="white"/>
</clipPath>
</defs>
</svg>
