<svg width="28" height="28" viewBox="0 0 28 28" fill="none" xmlns="http://www.w3.org/2000/svg">
<path d="M14 1.75C12.7886 1.75 11.6044 2.10923 10.5971 2.78225C9.58988 3.45527 8.80483 4.41187 8.34124 5.53106C7.87765 6.65026 7.75636 7.88179 7.99269 9.06993C8.22903 10.2581 8.81238 11.3494 9.66897 12.206C10.5256 13.0626 11.6169 13.646 12.8051 13.8823C13.9932 14.1186 15.2247 13.9973 16.3439 13.5338C17.4631 13.0702 18.4197 12.2851 19.0928 11.2779C19.7658 10.2706 20.125 9.08641 20.125 7.875C20.125 6.25055 19.4797 4.69263 18.331 3.54397C17.1824 2.39531 15.6245 1.75 14 1.75ZM14 12.25C13.1347 12.25 12.2888 11.9934 11.5694 11.5127C10.8499 11.0319 10.2892 10.3487 9.95803 9.54924C9.6269 8.74981 9.54026 7.87015 9.70907 7.02148C9.87788 6.17281 10.2946 5.39326 10.9064 4.78141C11.5183 4.16955 12.2978 3.75287 13.1465 3.58406C13.9951 3.41525 14.8748 3.50189 15.6742 3.83303C16.4737 4.16416 17.157 4.72492 17.6377 5.44438C18.1184 6.16385 18.375 7.00971 18.375 7.875C18.375 8.44953 18.2618 9.01844 18.042 9.54924C17.8221 10.08 17.4999 10.5623 17.0936 10.9686C16.6873 11.3748 16.205 11.6971 15.6742 11.917C15.1434 12.1368 14.5745 12.25 14 12.25Z" fill="#878789"/>
<path d="M18.5238 15.75H9.47625C7.42783 15.7523 5.46398 16.5671 4.01552 18.0155C2.56707 19.464 1.75232 21.4278 1.75 23.4762C1.75 24.2119 2.04223 24.9174 2.56241 25.4376C3.08259 25.9578 3.78811 26.25 4.52375 26.25H23.4762C24.2119 26.25 24.9174 25.9578 25.4376 25.4376C25.9578 24.9174 26.25 24.2119 26.25 23.4762C26.2477 21.4278 25.4329 19.464 23.9845 18.0155C22.536 16.5671 20.5722 15.7523 18.5238 15.75ZM23.4762 24.5H4.52375C4.25223 24.5 3.99184 24.3921 3.79985 24.2001C3.60786 24.0082 3.5 23.7478 3.5 23.4762C3.5 21.8912 4.12964 20.3712 5.2504 19.2504C6.37117 18.1296 7.89125 17.5 9.47625 17.5H18.5238C20.1087 17.5 21.6288 18.1296 22.7496 19.2504C23.8704 20.3712 24.5 21.8912 24.5 23.4762C24.5 23.7478 24.3921 24.0082 24.2001 24.2001C24.0082 24.3921 23.7478 24.5 23.4762 24.5Z" fill="#878789"/>
</svg>
